<svg width="48" height="48" viewBox="0 0 48 48" fill="none" xmlns="http://www.w3.org/2000/svg">
<path d="M30.0005 33.0105H18.0041C13.2644 33.0105 9.22881 30.0035 8.19805 25.6911L6.0629 16.7786C5.90184 16.1046 6.05369 15.4024 6.47704 14.8462C6.94641 14.2382 7.66886 13.8848 8.46034 13.8848H39.5397C40.3311 13.8848 41.0536 14.2382 41.523 14.8462C41.9463 15.4024 42.0982 16.1046 41.9371 16.7786L39.802 25.6958C38.7712 30.0035 34.7402 33.0152 29.9959 33.0152L30.0005 33.0105ZM8.46034 15.77C8.23946 15.77 8.04159 15.8596 7.92655 16.0104C7.84832 16.1093 7.82532 16.2177 7.85293 16.3309L9.98808 25.248C10.8026 28.6556 14.1755 31.13 18.0041 31.13H30.0005C33.8291 31.13 37.202 28.6556 38.0165 25.248L40.1517 16.3309C40.1793 16.2177 40.1517 16.1141 40.078 16.0151C39.963 15.8643 39.7605 15.7747 39.5443 15.7747H8.46034V15.77Z" fill="#FD505B"/>
<path d="M29.1821 35.8847H18.8131C16.8376 35.8847 15.2307 34.1873 15.2307 32.1005V31.1021H32.7692V32.1005C32.7692 34.1873 31.1623 35.8847 29.1868 35.8847H29.1821ZM17.4094 33.099C17.7119 33.5782 18.2318 33.8877 18.8131 33.8877H29.1821C29.7681 33.8877 30.2833 33.5732 30.5857 33.099H17.4094Z" fill="#FD505B"/>
<path d="M20.3077 21.5366C21.0724 21.5366 21.6923 20.8942 21.6923 20.1018C21.6923 19.3094 21.0724 18.667 20.3077 18.667C19.543 18.667 18.9231 19.3094 18.9231 20.1018C18.9231 20.8942 19.543 21.5366 20.3077 21.5366Z" fill="#FD505B"/>
<path d="M27.6924 21.5366C28.4571 21.5366 29.077 20.8942 29.077 20.1018C29.077 19.3094 28.4571 18.667 27.6924 18.667C26.9277 18.667 26.3077 19.3094 26.3077 20.1018C26.3077 20.8942 26.9277 21.5366 27.6924 21.5366Z" fill="#FD505B"/>
<path d="M24.0039 26.5767C22.836 26.5767 21.6682 26.354 20.5045 25.9051C20.0817 25.7418 19.885 25.304 20.0692 24.9292C20.2533 24.5544 20.7473 24.38 21.17 24.5433C23.0746 25.278 24.9248 25.278 26.8293 24.5433C27.2521 24.38 27.7461 24.5507 27.9302 24.9292C28.1144 25.304 27.9219 25.7418 27.4949 25.9051C26.3354 26.354 25.1634 26.5767 23.9955 26.5767H24.0039Z" fill="#FD505B"/>
</svg>
