<svg width="18" height="17" viewBox="0 0 18 17" fill="none" xmlns="http://www.w3.org/2000/svg">
<g clip-path="url(#clip0_22_4677)">
<path d="M0 13.5182C1.2626 11.1094 1.67872 9.62077 2.13041 5.87259L4.2217 6.30603C3.59929 10.8607 3.27919 12.0686 2.0735 14.6835L0 13.5146L0 13.5182ZM7.4262 14.385C7.4262 14.8575 7.78542 14.9499 9.51749 14.9499C11.0255 14.9499 11.5732 14.8185 11.7795 14.385C12.0249 13.8592 12.1565 12.6157 12.1956 10.6582C13.0065 11.0525 13.5151 11.2231 14.3082 11.4114C14.1375 13.9516 13.949 15.0245 13.5365 15.8168C13.0101 16.776 12.1778 17.0034 9.16538 17.0034C5.82928 17.0034 5.26378 16.7014 5.26378 14.989V6.10352C5.26378 5.38942 5.22466 4.93466 5.13219 4.18147H7.56491C7.46888 4.78545 7.43331 5.3681 7.43331 6.04668V14.3886L7.4262 14.385ZM11.5554 4.82097C9.67042 3.5775 8.27623 2.89892 5.18554 1.79046L6.39123 0.00341797C9.20095 0.962666 10.6129 1.5844 12.8571 2.84563L11.5554 4.82097ZM15.834 14.2713C14.9662 10.9957 14.1766 8.94219 12.8002 6.4588L14.8168 5.5564C16.211 8.04334 16.9295 9.7913 18.0036 13.1806L15.8376 14.2713H15.834Z" fill="black"/>
</g>
<defs>
<clipPath id="clip0_22_4677">
<rect width="18" height="17" fill="white"/>
</clipPath>
</defs>
</svg>
