<svg width="156" height="156" viewBox="0 0 156 156" fill="none" xmlns="http://www.w3.org/2000/svg">
<path fill-rule="evenodd" clip-rule="evenodd" d="M49.8889 11.5941C47.6148 15.171 46.1622 20.0353 46.1622 24.8806C46.1622 34.4165 51.6077 39.2128 57.4594 39.2128C63.3112 39.2128 68.7567 34.4165 68.7567 24.8806C68.7567 20.0353 67.304 15.171 65.03 11.5941C62.7065 7.93956 59.9372 6.19149 57.4594 6.19149C54.9817 6.19149 52.2124 7.93956 49.8889 11.5941ZM44.6959 8.26103C47.5764 3.73021 51.9963 0 57.4594 0C62.9226 0 67.3425 3.73021 70.223 8.26103C73.1529 12.8694 74.9189 18.8977 74.9189 24.8806C74.9189 37.0014 67.4896 45.4043 57.4594 45.4043C47.4293 45.4043 40 37.0014 40 24.8806C40 18.8977 41.766 12.8694 44.6959 8.26103Z" fill="#FD505B"/>
<path fill-rule="evenodd" clip-rule="evenodd" d="M57.4594 39.2128C59.161 39.2128 60.5405 40.5988 60.5405 42.3085L60.5405 93.9043C60.5405 95.614 59.161 97 57.4594 97C55.7577 97 54.3783 95.614 54.3783 93.9043L54.3783 42.3085C54.3783 40.5988 55.7577 39.2128 57.4594 39.2128Z" fill="#FD505B"/>
<path fill-rule="evenodd" clip-rule="evenodd" d="M87.8201 2.25058C89.4191 2.83543 90.2435 4.61195 89.6614 6.21854C88.145 10.4039 87.2432 15.3603 87.2432 20.2943C87.2432 26.6788 88.7494 31.523 90.9105 34.674C93.0432 37.7836 95.7565 39.2128 98.5405 39.2128C101.324 39.2128 104.038 37.7836 106.171 34.674C108.332 31.523 109.838 26.6788 109.838 20.2943C109.838 15.3603 108.936 10.4039 107.42 6.21854C106.838 4.61195 107.662 2.83543 109.261 2.25058C110.86 1.66573 112.628 2.49402 113.21 4.10061C114.975 8.97303 116 14.6468 116 20.2943C116 27.5877 114.287 33.7507 111.245 38.1872C108.173 42.6653 103.697 45.4043 98.5405 45.4043C93.3835 45.4043 88.9077 42.6653 85.8364 38.1872C82.7936 33.7507 81.0811 27.5877 81.0811 20.2943C81.0811 14.6468 82.1057 8.97303 83.871 4.10061C84.4531 2.49402 86.2212 1.66573 87.8201 2.25058Z" fill="#FD505B"/>
<path fill-rule="evenodd" clip-rule="evenodd" d="M98.5406 2.06384C100.242 2.06384 101.622 3.44985 101.622 5.15959L101.622 93.9043C101.622 95.614 100.242 97 98.5406 97C96.8389 97 95.4595 95.614 95.4595 93.9043L95.4595 5.15959C95.4595 3.44985 96.8389 2.06384 98.5406 2.06384Z" fill="#FD505B"/>
<g clip-path="url(#clip0_69_1100)">
<path d="M28.0658 142.079C27.6049 143.187 27.1521 144.109 26.6912 144.853C26.2303 145.589 25.6967 146.123 25.0821 146.463C24.4676 146.803 23.7076 146.916 22.8019 146.819C21.8963 146.722 20.7724 146.398 19.4221 145.84L4.60072 139.733C3.25039 139.175 2.22349 138.617 1.52002 138.042C0.808468 137.468 0.355662 136.853 0.153516 136.182C-0.0486302 135.511 -0.056716 134.75 0.14543 133.909C0.33949 133.06 0.662923 132.081 1.12382 130.973L3.78406 124.51L7.43077 126.014L6.12086 129.185L25.7694 137.29L27.0793 134.119L30.7261 135.624L28.0658 142.087V142.079ZM20.8694 142.451C21.3707 142.661 21.7912 142.783 22.1308 142.831C22.4704 142.88 22.7615 142.831 23.0203 142.686C23.279 142.548 23.5054 142.322 23.7076 142.022C23.9097 141.715 24.1199 141.302 24.3382 140.777L4.68158 132.671C4.46327 133.197 4.31772 133.642 4.25303 133.998C4.18026 134.354 4.18835 134.677 4.27729 134.961C4.35815 135.244 4.53604 135.486 4.81096 135.689C5.07779 135.891 5.46591 136.101 5.96723 136.303L20.8613 142.443L20.8694 142.451ZM10.9077 113.072L23.1092 118.103L24.5808 114.536L28.2275 116.04L25.2358 123.296C24.6374 124.752 24.0552 125.893 23.4973 126.726C22.9394 127.559 22.2844 128.125 21.5486 128.425C20.8047 128.724 19.9315 128.781 18.9127 128.586C17.8938 128.4 16.6163 127.988 15.0881 127.357L10.0991 125.302C8.56278 124.671 7.37417 124.065 6.51707 123.474C5.65997 122.892 5.07779 122.229 4.76244 121.501C4.44709 120.764 4.38241 119.907 4.57647 118.92C4.77053 117.933 5.15865 116.712 5.757 115.256L8.73259 108L12.3793 109.505L10.9077 113.072ZM21.6699 121.589L9.4684 116.558L9.38754 116.752C9.09645 117.464 8.8943 118.063 8.78919 118.548C8.68407 119.033 8.69216 119.462 8.81344 119.834C8.93473 120.206 9.21774 120.546 9.64629 120.853C10.0748 121.153 10.6894 121.468 11.4818 121.8L16.5516 123.887C17.344 124.21 17.999 124.421 18.5164 124.51C19.0339 124.599 19.4706 124.558 19.8264 124.372C20.1821 124.194 20.4894 123.895 20.7481 123.474C21.015 123.062 21.2899 122.495 21.5891 121.776L21.6699 121.573V121.589ZM37.5828 118.969L35.1328 124.914L39.7256 126.807L38.2863 130.293L33.6936 128.4L31.0333 134.863L27.3866 133.359L33.9361 117.464L37.5828 118.969Z" fill="#FD505B"/>
<path d="M45.9679 152.028C44.3265 151.818 43.0166 151.535 42.0382 151.195C41.0598 150.855 40.324 150.37 39.8308 149.739C39.3376 149.116 39.0546 148.299 38.9818 147.296C38.909 146.293 38.9818 145.015 39.1758 143.454L42.0544 121.217L59.1398 123.434L57.5954 135.341L61.6787 135.867L63.2716 123.539L67.1852 124.049L63.215 154.706L59.3015 154.196L61.1855 139.612L57.1021 139.086L56.245 145.678C56.0429 147.24 55.7761 148.493 55.4526 149.448C55.1292 150.402 54.644 151.114 54.0053 151.592C53.3665 152.069 52.5336 152.352 51.4987 152.433C50.4637 152.514 49.1295 152.449 47.48 152.239L45.9518 152.036L45.9679 152.028ZM48.0137 148.574C48.8627 148.688 49.55 148.72 50.0755 148.671C50.6011 148.623 51.0054 148.469 51.3046 148.202C51.5957 147.935 51.8221 147.571 51.9676 147.102C52.1132 146.633 52.2345 146.01 52.3396 145.25L54.7572 126.588L45.4909 125.391L43.0732 144.053C42.9762 144.821 42.9358 145.444 42.96 145.937C42.9843 146.431 43.1056 146.843 43.3158 147.175C43.5341 147.507 43.8899 147.757 44.3831 147.943C44.8764 148.121 45.5475 148.267 46.4046 148.38L48.0217 148.591L48.0137 148.574ZM74.0339 124.493L69.9586 156L66.0451 155.49L70.1203 123.984L74.0339 124.493Z" fill="#FD505B"/>
<path d="M84.1816 144.789C84.3676 146.204 84.691 147.32 85.1519 148.121C85.6128 148.93 86.195 149.513 86.8903 149.885C87.5857 150.257 88.362 150.467 89.2191 150.516C90.0762 150.564 90.9979 150.516 91.9925 150.394C92.9547 150.273 93.828 150.079 94.6204 149.82C95.4047 149.561 96.0597 149.165 96.5852 148.639C97.1108 148.113 97.4666 147.401 97.6688 146.512C97.8709 145.622 97.879 144.465 97.693 143.05L95.7686 128.166L99.6821 127.664L101.671 143.009C101.922 144.967 101.857 146.617 101.469 147.96C101.081 149.302 100.466 150.402 99.6255 151.244C98.7846 152.085 97.7415 152.732 96.5044 153.185C95.2673 153.638 93.925 153.953 92.4777 154.139C91.0303 154.326 89.6314 154.366 88.2811 154.253C86.9308 154.139 85.7098 153.784 84.6182 153.193C83.5347 152.603 82.6129 151.705 81.8529 150.508C81.0928 149.31 80.5834 147.733 80.3327 145.775L78.9581 135.147C78.7075 133.189 78.7722 131.539 79.1603 130.196C79.5484 128.845 80.1629 127.753 81.0038 126.912C81.8448 126.071 82.8878 125.424 84.125 124.971C85.3621 124.526 86.7044 124.202 88.1517 124.016L99.4557 122.552L99.9409 126.289L88.6369 127.753C87.6423 127.883 86.761 128.077 85.9928 128.336C85.2166 128.595 84.5697 128.991 84.0522 129.517C83.5266 130.042 83.1709 130.762 82.9687 131.668C82.7666 132.574 82.7585 133.723 82.9364 135.106L84.1897 144.797L84.1816 144.789ZM109.458 120.376L113.533 151.883L109.62 152.392L105.544 120.886L109.458 120.384V120.376Z" fill="#FD505B"/>
<path d="M114.601 119.705L141.551 108.599L142.804 111.648L119.509 121.25L121.239 125.448L144.534 115.846L145.788 118.896L122.492 128.498L122.897 129.492C123.188 130.204 123.471 130.771 123.738 131.183C124.004 131.604 124.312 131.895 124.659 132.081C125.007 132.267 125.444 132.307 125.969 132.218C126.495 132.129 127.142 131.919 127.934 131.596L147.664 123.458L148.909 126.467L129.22 134.589C127.683 135.219 126.414 135.632 125.395 135.818C124.376 136.004 123.495 135.956 122.759 135.656C122.015 135.357 121.368 134.791 120.811 133.958C120.253 133.124 119.67 131.976 119.072 130.528L114.617 119.705H114.601ZM121.271 144.91L154.553 131.191L155.992 134.677L122.711 148.396L121.271 144.91Z" fill="#FD505B"/>
</g>
<defs>
<clipPath id="clip0_69_1100">
<rect width="156" height="48" fill="white" transform="translate(0 108)"/>
</clipPath>
</defs>
</svg>
